<?xml version="1.0" encoding="UTF-8" standalone="no"?>
<svg
   xmlns="http://www.w3.org/2000/svg"
   xmlns:xlink="http://www.w3.org/1999/xlink"
   version="1.1"
   id="svg4136"
   height="480"
   width="800">
  <metadata
     id="metadata4307">
  </metadata>
  <defs
     id="defs4138">
    <marker
       overflow="visible"
       orient="auto"
       id="h">
      <path
         id="path4141"
         d="M1 0C1 .6.5 1 0 1c-.6 0-1-.4-1-1s.4-1 1-1c.5 0 1 .4 1 1z"
         fill="#4f81bd"
         fill-rule="evenodd"
         stroke="#4f81bd"
         stroke-width=".3" />
    </marker>
    <marker
       overflow="visible"
       orient="auto"
       id="g">
      <path
         id="path4144"
         d="M1 0C1 .6.5 1 0 1c-.6 0-1-.4-1-1s.4-1 1-1c.5 0 1 .4 1 1z"
         fill="#4f81bd"
         fill-rule="evenodd"
         stroke="#4f81bd"
         stroke-width=".3" />
    </marker>
    <marker
       overflow="visible"
       orient="auto"
       id="f">
      <path
         id="path4147"
         d="M1 0C1 .6.5 1 0 1c-.6 0-1-.4-1-1s.4-1 1-1c.5 0 1 .4 1 1z"
         fill="#4f81bd"
         fill-rule="evenodd"
         stroke="#4f81bd"
         stroke-width=".3" />
    </marker>
    <marker
       overflow="visible"
       orient="auto"
       id="k">
      <path
         id="path4150"
         d="M1 0C1 .6.5 1 0 1c-.6 0-1-.4-1-1s.4-1 1-1c.5 0 1 .4 1 1z"
         fill="#c0504d"
         fill-rule="evenodd"
         stroke="#c0504d"
         stroke-width=".3" />
    </marker>
    <marker
       overflow="visible"
       orient="auto"
       id="j">
      <path
         id="path4153"
         d="M1 0C1 .6.5 1 0 1c-.6 0-1-.4-1-1s.4-1 1-1c.5 0 1 .4 1 1z"
         fill="#c0504d"
         fill-rule="evenodd"
         stroke="#c0504d"
         stroke-width=".3" />
    </marker>
    <marker
       overflow="visible"
       orient="auto"
       id="i">
      <path
         id="path4156"
         d="M1 0C1 .6.5 1 0 1c-.6 0-1-.4-1-1s.4-1 1-1c.5 0 1 .4 1 1z"
         fill="#c0504d"
         fill-rule="evenodd"
         stroke="#c0504d"
         stroke-width=".3" />
    </marker>
    <marker
       overflow="visible"
       orient="auto"
       id="l">
      <path
         id="path4159"
         d="M1 0C1 .6.5 1 0 1c-.6 0-1-.4-1-1s.4-1 1-1c.5 0 1 .4 1 1z"
         fill="#4f81bd"
         fill-rule="evenodd"
         stroke="#4f81bd"
         stroke-width=".3" />
    </marker>
    <marker
       overflow="visible"
       orient="auto"
       id="m">
      <path
         id="path4162"
         d="M1 0C1 .6.5 1 0 1c-.6 0-1-.4-1-1s.4-1 1-1c.5 0 1 .4 1 1z"
         fill="#c0504d"
         fill-rule="evenodd"
         stroke="#c0504d"
         stroke-width=".3" />
    </marker>
    <marker
       overflow="visible"
       orient="auto"
       id="o">
      <path
         id="path4165"
         d="M1 0C1 .6.5 1 0 1c-.6 0-1-.4-1-1s.4-1 1-1c.5 0 1 .4 1 1z"
         fill="#4f81bd"
         fill-rule="evenodd"
         stroke="#4f81bd"
         stroke-width=".3" />
    </marker>
    <marker
       overflow="visible"
       orient="auto"
       id="n">
      <path
         id="path4168"
         d="M1 0C1 .6.5 1 0 1c-.6 0-1-.4-1-1s.4-1 1-1c.5 0 1 .4 1 1z"
         fill="#c0504d"
         fill-rule="evenodd"
         stroke="#c0504d"
         stroke-width=".3" />
    </marker>
  </defs>
  <path
     id="path4170"
     d="M0 0h800v480H0z"
     overflow="visible"
     color="#000"
     fill="#fff" />
  <g
     id="g4172"
     transform="matrix(.816 0 0 .816 148 -53.4)">
    <path
       id="a"
       d="M72.2 121H725"
       overflow="visible"
       color="#000"
       fill="none"
       stroke="#ccc"
       stroke-width="2.5"
       stroke-linecap="round"
       stroke-linejoin="round" />
    <use
       id="b"
       width="744"
       height="1050"
       transform="translate(0 58.5)"
       xlink:href="#a" />
    <use
       id="c"
       width="744"
       height="1050"
       transform="translate(0 58.5)"
       xlink:href="#b" />
    <use
       id="d"
       width="744"
       height="1050"
       transform="translate(0 58.5)"
       xlink:href="#c" />
    <use
       id="e"
       width="744"
       height="1050"
       transform="translate(0 58.5)"
       xlink:href="#d" />
    <use
       id="use4179"
       width="744"
       height="1050"
       transform="translate(0 58.5)"
       xlink:href="#e" />
    <path
       id="path4181"
       d="M72.2 320L291 110l217 257 218-36"
       overflow="visible"
       color="#000"
       fill="none"
       stroke="#4f81bd"
       stroke-width="7.4"
       stroke-linecap="round"
       stroke-linejoin="round"
       marker-start="url(#h)"
       marker-mid="url(#g)"
       marker-end="url(#f)" />
    <path
       id="path4183"
       d="M72.2 390L291 250l217 47 219-12"
       overflow="visible"
       color="#000"
       fill="none"
       stroke="#c0504d"
       stroke-width="7.4"
       stroke-linecap="round"
       stroke-linejoin="round"
       marker-start="url(#k)"
       marker-mid="url(#j)"
       marker-end="url(#i)" />
    <text
       id="text4185"
       x="736.2"
       y="282.5"
       style="line-height:146%;-inkscape-font-specification:'Arial Italic';text-align:start"
       font-size="23"
       font-style="italic"
       overflow="visible"
       color="#000"
       font-family="Arial"
       stroke-width="8">
      <tspan
         id="tspan4187"
         x="736.2"
         y="282.5"
         style="-inkscape-font-specification:Arial"
         font-style="oblique">11.2</tspan>
    </text>
    <text
       id="text4189"
       x="734.4"
       y="336.5"
       style="line-height:146%;-inkscape-font-specification:'Arial Italic';text-align:start"
       font-size="23"
       font-style="italic"
       overflow="visible"
       color="#000"
       font-family="Arial"
       stroke-width="8">
      <tspan
         id="tspan4191"
         x="734.4"
         y="336.5"
         style="-inkscape-font-specification:Arial"
         font-style="oblique">10.8</tspan>
    </text>
    <text
       id="text4193"
       x="451.2"
       y="381.7"
       style="line-height:146%;-inkscape-font-specification:'Arial Italic';text-align:start"
       font-size="23"
       font-style="italic"
       overflow="visible"
       color="#000"
       font-family="Arial"
       stroke-width="8">
      <tspan
         id="tspan4195"
         x="451.2"
         y="381.7"
         style="-inkscape-font-specification:Arial"
         font-style="oblique">10.5</tspan>
    </text>
    <text
       id="text4197"
       x="483.7"
       y="285.2"
       style="line-height:146%;-inkscape-font-specification:'Arial Italic';text-align:start"
       font-size="23"
       font-style="italic"
       overflow="visible"
       color="#000"
       font-family="Arial"
       stroke-width="8">
      <tspan
         id="tspan4199"
         x="483.7"
         y="285.2"
         style="-inkscape-font-specification:Arial"
         font-style="oblique">11.1</tspan>
    </text>
    <text
       id="text4201"
       x="274.5"
       y="280.1"
       style="line-height:146%;-inkscape-font-specification:'Arial Italic';text-align:start"
       font-size="23"
       font-style="italic"
       overflow="visible"
       color="#000"
       font-family="Arial"
       stroke-width="8">
      <tspan
         id="tspan4203"
         x="274.5"
         y="280.1"
         style="-inkscape-font-specification:Arial"
         font-style="oblique">11.5</tspan>
    </text>
    <text
       id="text4205"
       x="235.2"
       y="115.7"
       style="line-height:146%;-inkscape-font-specification:'Arial Italic';text-align:start"
       font-size="23"
       font-style="italic"
       overflow="visible"
       color="#000"
       font-family="Arial"
       stroke-width="8">
      <tspan
         id="tspan4207"
         x="235.2"
         y="115.7"
         style="-inkscape-font-specification:Arial"
         font-style="oblique">12.7</tspan>
    </text>
    <text
       id="text4209"
       x="16.4"
       y="325.9"
       style="line-height:146%;-inkscape-font-specification:'Arial Italic';text-align:start"
       font-size="23"
       font-style="italic"
       overflow="visible"
       color="#000"
       font-family="Arial"
       stroke-width="8">
      <tspan
         id="tspan4211"
         x="16.4"
         y="325.9"
         style="-inkscape-font-specification:Arial"
         font-style="oblique">10.9</tspan>
    </text>
    <text
       id="text4213"
       x="16.4"
       y="397.5"
       style="line-height:146%;-inkscape-font-specification:'Arial Italic';text-align:start"
       font-size="23"
       font-style="italic"
       overflow="visible"
       color="#000"
       font-family="Arial"
       stroke-width="8">
      <tspan
         id="tspan4215"
         x="16.4"
         y="397.5"
         style="-inkscape-font-specification:Arial"
         font-style="oblique">10.3</tspan>
    </text>
  </g>
  <text
     id="text4217"
     overflow="visible"
     font-size="12.4"
     style="line-height:146%;-inkscape-font-specification:Arial;text-align:start"
     y="86.4"
     x="22.5"
     color="#000"
     font-family="Arial"
     stroke-width="8"
     transform="translate(0 -50)">
    <tspan
       id="tspan4219"
       style="-inkscape-font-specification:Arial"
       y="86.4"
       x="22.5">Time 1 = between t1 and t2</tspan>
    <tspan
       id="tspan4221"
       style="-inkscape-font-specification:Arial"
       y="104.5"
       x="22.5">Time 2 = between t2 and t3</tspan>
    <tspan
       id="tspan4223"
       style="-inkscape-font-specification:Arial"
       y="122.6"
       x="22.5">Time 3 = between t3 and t4</tspan>
  </text>
  <g
     id="g4225"
     color="#000">
    <path
       id="path4227"
       transform="matrix(.578 0 0 .578 823.752 -61)"
       overflow="visible"
       d="M-860 896h-30-29"
       fill="none"
       stroke="#4f81bd"
       stroke-width="10.4"
       stroke-linecap="square"
       stroke-linejoin="round"
       marker-mid="url(#l)" />
    <text
       id="text4229"
       transform="matrix(.578 0 0 .578 823.752 -61)"
       overflow="visible"
       font-style="italic"
       font-size="22.2"
       style="line-height:146%;-inkscape-font-specification:'Arial Italic';text-align:start"
       y="903.6"
       x="-849.1"
       font-family="Arial"
       stroke-width="8">
      <tspan
         id="tspan4231"
         font-style="oblique"
         style="-inkscape-font-specification:Arial"
         y="903.6"
         x="-849.1">Nurses</tspan>
    </text>
    <path
       id="path4233"
       transform="matrix(.578 0 0 .578 831.046 -61)"
       overflow="visible"
       d="M-696 896h-30-29"
       fill="none"
       stroke="#c0504d"
       stroke-width="10.4"
       stroke-linecap="square"
       stroke-linejoin="round"
       marker-mid="url(#m)" />
    <text
       id="text4235"
       transform="matrix(.578 0 0 .578 831.046 -61)"
       overflow="visible"
       font-style="italic"
       font-size="22.2"
       style="line-height:146%;-inkscape-font-specification:'Arial Italic';text-align:start"
       y="903.6"
       x="-684.9"
       font-family="Arial"
       stroke-width="8">
      <tspan
         id="tspan4237"
         font-style="oblique"
         style="-inkscape-font-specification:Arial"
         y="903.6"
         x="-684.9">Teachers</tspan>
    </text>
  </g>
  <text
     id="text4239"
     x="241.1"
     y="491.9"
     style="line-height:146%;-inkscape-font-specification:'Arial Italic';text-align:start"
     font-size="23"
     font-style="italic"
     overflow="visible"
     color="#000"
     font-family="Arial"
     stroke-width="8"
     transform="matrix(.816 0 0 .816 2.24 -58)">
    <tspan
       id="tspan4241"
       x="241.1"
       y="491.9"
       style="-inkscape-font-specification:Arial"
       font-style="oblique">GHQ-12 t1</tspan>
  </text>
  <text
     id="text4243"
     x="430.6"
     y="491.9"
     style="line-height:146%;-inkscape-font-specification:'Arial Italic';text-align:start"
     font-size="23"
     font-style="italic"
     overflow="visible"
     color="#000"
     font-family="Arial"
     stroke-width="8"
     transform="matrix(.816 0 0 .816 2.24 -58)">
    <tspan
       id="tspan4245"
       x="430.6"
       y="491.9"
       style="-inkscape-font-specification:Arial"
       font-style="oblique">GHQ-12 t2</tspan>
  </text>
  <text
     id="text4247"
     x="621.2"
     y="491.9"
     style="line-height:146%;-inkscape-font-specification:'Arial Italic';text-align:start"
     font-size="23"
     font-style="italic"
     overflow="visible"
     color="#000"
     font-family="Arial"
     stroke-width="8"
     transform="matrix(.816 0 0 .816 2.24 -58)">
    <tspan
       id="tspan4249"
       x="621.2"
       y="491.9"
       style="-inkscape-font-specification:Arial"
       font-style="oblique">GHQ-12 t3</tspan>
  </text>
  <text
     id="text4251"
     x="811.3"
     y="491.9"
     style="line-height:146%;-inkscape-font-specification:'Arial Italic';text-align:start"
     font-size="23"
     font-style="italic"
     overflow="visible"
     color="#000"
     font-family="Arial"
     stroke-width="8"
     transform="matrix(.816 0 0 .816 2.24 -58)">
    <tspan
       id="tspan4253"
       x="811.3"
       y="491.9"
       style="-inkscape-font-specification:Arial"
       font-style="oblique">GHQ-12 t4</tspan>
  </text>
  <g
     id="g4255"
     color="#000">
    <path
       id="path4257"
       transform="matrix(.816 0 0 .816 -27.952 -122.056)"
       d="M130 655h-21-20.5"
       overflow="visible"
       fill="none"
       stroke="#c0504d"
       stroke-width="7.4"
       stroke-linecap="square"
       stroke-linejoin="round"
       marker-mid="url(#n)" />
    <text
       id="text4259"
       transform="matrix(.816 0 0 .816 -27.952 -122.056)"
       x="138.1"
       y="659.9"
       style="line-height:146%;-inkscape-font-specification:'Arial Italic';text-align:start"
       font-size="15.7"
       font-style="italic"
       overflow="visible"
       font-family="Arial"
       stroke-width="8">
      <tspan
         id="tspan4261"
         x="138.1"
         y="659.9"
         style="-inkscape-font-specification:Arial"
         font-style="oblique">Teachers</tspan>
    </text>
  </g>
  <text
     id="text4263"
     x="272.9"
     y="584.6"
     style="line-height:146%;-inkscape-font-specification:'Arial Italic';text-align:start"
     font-size="23"
     font-style="italic"
     overflow="visible"
     color="#000"
     font-family="Arial"
     stroke-width="8"
     transform="matrix(.816 0 0 .816 2.24 -58)">
    <tspan
       id="tspan4265"
       x="272.9"
       y="584.6"
       style="-inkscape-font-specification:Arial"
       font-style="oblique">10.3</tspan>
  </text>
  <text
     id="text4267"
     x="464"
     y="584.6"
     style="line-height:146%;-inkscape-font-specification:'Arial Italic';text-align:start"
     font-size="23"
     font-style="italic"
     overflow="visible"
     color="#000"
     font-family="Arial"
     stroke-width="8"
     transform="matrix(.816 0 0 .816 2.24 -58)">
    <tspan
       id="tspan4269"
       x="464"
       y="584.6"
       style="-inkscape-font-specification:Arial"
       font-style="oblique">11.5</tspan>
  </text>
  <text
     id="text4271"
     x="655.6"
     y="584.8"
     style="line-height:146%;-inkscape-font-specification:'Arial Italic';text-align:start"
     font-size="23"
     font-style="italic"
     overflow="visible"
     color="#000"
     font-family="Arial"
     stroke-width="8"
     transform="matrix(.816 0 0 .816 2.24 -58)">
    <tspan
       id="tspan4273"
       x="655.6"
       y="584.8"
       style="-inkscape-font-specification:Arial"
       font-style="oblique">11.1</tspan>
  </text>
  <text
     id="text4275"
     x="844.7"
     y="584.8"
     style="line-height:146%;-inkscape-font-specification:'Arial Italic';text-align:start"
     font-size="23"
     font-style="italic"
     overflow="visible"
     color="#000"
     font-family="Arial"
     stroke-width="8"
     transform="matrix(.816 0 0 .816 2.24 -58)">
    <tspan
       id="tspan4277"
       x="844.7"
       y="584.8"
       style="-inkscape-font-specification:Arial"
       font-style="oblique">11.2</tspan>
  </text>
  <g
     id="g4279"
     color="#000">
    <path
       id="path4281"
       transform="matrix(.816 0 0 .816 74.2 -159)"
       marker-mid="url(#o)"
       stroke-linejoin="round"
       stroke-linecap="square"
       stroke-width="7.4"
       stroke="#4f81bd"
       fill="none"
       d="M5 655h-21-20.7"
       overflow="visible" />
    <text
       id="text4283"
       transform="matrix(.816 0 0 .816 74.2 -159)"
       stroke-width="8"
       font-family="Arial"
       x="12.8"
       y="659.9"
       style="line-height:146%;-inkscape-font-specification:'Arial Italic';text-align:start"
       font-size="15.7"
       font-style="italic"
       overflow="visible">
      <tspan
         id="tspan4285"
         x="12.8"
         y="659.9"
         style="-inkscape-font-specification:Arial"
         font-style="oblique">Nurses</tspan>
    </text>
  </g>
  <text
     id="text4287"
     stroke-width="8"
     font-family="Arial"
     color="#000"
     x="690.781"
     y="382.355"
     style="line-height:146%;-inkscape-font-specification:'Arial Italic';text-align:start"
     font-size="18.768"
     font-style="italic"
     overflow="visible">
    <tspan
       id="tspan4289"
       x="690.781"
       y="382.355"
       style="-inkscape-font-specification:Arial"
       font-style="oblique">10.8</tspan>
  </text>
  <text
     id="text4291"
     stroke-width="8"
     font-family="Arial"
     color="#000"
     x="535.659"
     y="382.355"
     style="line-height:146%;-inkscape-font-specification:'Arial Italic';text-align:start"
     font-size="18.768"
     font-style="italic"
     overflow="visible">
    <tspan
       id="tspan4293"
       x="535.659"
       y="382.355"
       style="-inkscape-font-specification:Arial"
       font-style="oblique">10.5</tspan>
  </text>
  <text
     id="text4295"
     stroke-width="8"
     font-family="Arial"
     color="#000"
     x="379.966"
     y="382.437"
     style="line-height:146%;-inkscape-font-specification:'Arial Italic';text-align:start"
     font-size="18.768"
     font-style="italic"
     overflow="visible">
    <tspan
       id="tspan4297"
       x="379.966"
       y="382.437"
       style="-inkscape-font-specification:Arial"
       font-style="oblique">12.7</tspan>
  </text>
  <text
     id="text4299"
     stroke-width="8"
     font-family="Arial"
     color="#000"
     x="224.926"
     y="382.355"
     style="line-height:146%;-inkscape-font-specification:'Arial Italic';text-align:start"
     font-size="18.768"
     font-style="italic"
     overflow="visible">
    <tspan
       id="tspan4301"
       x="224.926"
       y="382.355"
       style="-inkscape-font-specification:Arial"
       font-style="oblique">10.9</tspan>
  </text>
  <path
     id="path4303"
     stroke-linecap="square"
     stroke-width=".979"
     stroke="gray"
     fill="none"
     d="M12.4 434H788M12.4 395H788M12.4 357H788m-621-39h621m0 0v116M633 318v116M478 318v116M322 318v116M167 318v116M12 357v77" />
</svg>
