<svg xmlns="http://www.w3.org/2000/svg" xmlns:xlink="http://www.w3.org/1999/xlink" width="800" height="480"><defs><marker id="h" orient="auto" overflow="visible"><path stroke-width=".3" stroke="#4f81bd" fill-rule="evenodd" fill="#4f81bd" d="M1 0C1 .6.5 1 0 1c-.6 0-1-.4-1-1s.4-1 1-1c.5 0 1 .4 1 1z"/></marker><marker id="g" orient="auto" overflow="visible"><path stroke-width=".3" stroke="#4f81bd" fill-rule="evenodd" fill="#4f81bd" d="M1 0C1 .6.5 1 0 1c-.6 0-1-.4-1-1s.4-1 1-1c.5 0 1 .4 1 1z"/></marker><marker id="f" orient="auto" overflow="visible"><path stroke-width=".3" stroke="#4f81bd" fill-rule="evenodd" fill="#4f81bd" d="M1 0C1 .6.5 1 0 1c-.6 0-1-.4-1-1s.4-1 1-1c.5 0 1 .4 1 1z"/></marker><marker id="k" orient="auto" overflow="visible"><path stroke-width=".3" stroke="#c0504d" fill-rule="evenodd" fill="#c0504d" d="M1 0C1 .6.5 1 0 1c-.6 0-1-.4-1-1s.4-1 1-1c.5 0 1 .4 1 1z"/></marker><marker id="j" orient="auto" overflow="visible"><path stroke-width=".3" stroke="#c0504d" fill-rule="evenodd" fill="#c0504d" d="M1 0C1 .6.5 1 0 1c-.6 0-1-.4-1-1s.4-1 1-1c.5 0 1 .4 1 1z"/></marker><marker id="i" orient="auto" overflow="visible"><path stroke-width=".3" stroke="#c0504d" fill-rule="evenodd" fill="#c0504d" d="M1 0C1 .6.5 1 0 1c-.6 0-1-.4-1-1s.4-1 1-1c.5 0 1 .4 1 1z"/></marker><marker id="l" orient="auto" overflow="visible"><path stroke-width=".3" stroke="#4f81bd" fill-rule="evenodd" fill="#4f81bd" d="M1 0C1 .6.5 1 0 1c-.6 0-1-.4-1-1s.4-1 1-1c.5 0 1 .4 1 1z"/></marker><marker id="m" orient="auto" overflow="visible"><path stroke-width=".3" stroke="#c0504d" fill-rule="evenodd" fill="#c0504d" d="M1 0C1 .6.5 1 0 1c-.6 0-1-.4-1-1s.4-1 1-1c.5 0 1 .4 1 1z"/></marker><marker id="o" orient="auto" overflow="visible"><path stroke-width=".3" stroke="#4f81bd" fill-rule="evenodd" fill="#4f81bd" d="M1 0C1 .6.5 1 0 1c-.6 0-1-.4-1-1s.4-1 1-1c.5 0 1 .4 1 1z"/></marker><marker id="n" orient="auto" overflow="visible"><path stroke-width=".3" stroke="#c0504d" fill-rule="evenodd" fill="#c0504d" d="M1 0C1 .6.5 1 0 1c-.6 0-1-.4-1-1s.4-1 1-1c.5 0 1 .4 1 1z"/></marker></defs><path fill="#fff" color="#000" overflow="visible" d="M0 0h800v480H0z"/><g transform="matrix(.816 0 0 .816 148 -53.4)"><path stroke-linejoin="round" stroke-linecap="round" stroke-width="2.5" stroke="#ccc" fill="none" color="#000" overflow="visible" d="M72.2 121H725" id="a"/><use xlink:href="#a" transform="translate(0 58.5)" height="1050" width="744" id="b"/><use xlink:href="#b" transform="translate(0 58.5)" height="1050" width="744" id="c"/><use xlink:href="#c" transform="translate(0 58.5)" height="1050" width="744" id="d"/><use xlink:href="#d" transform="translate(0 58.5)" height="1050" width="744" id="e"/><use xlink:href="#e" transform="translate(0 58.5)" height="1050" width="744"/><path marker-end="url(#f)" marker-mid="url(#g)" marker-start="url(#h)" stroke-linejoin="round" stroke-linecap="round" stroke-width="7.4" stroke="#4f81bd" fill="none" color="#000" overflow="visible" d="M72.2 320L291 110l217 257 218-36"/><path marker-end="url(#i)" marker-mid="url(#j)" marker-start="url(#k)" stroke-linejoin="round" stroke-linecap="round" stroke-width="7.4" stroke="#c0504d" fill="none" color="#000" overflow="visible" d="M72.2 390L291 250l217 47 219-12"/><text stroke-width="8" font-family="Arial" color="#000" overflow="visible" font-style="italic" font-size="23" style="line-height:146%;-inkscape-font-specification:'Arial Italic';text-align:start" y="282.5" x="736.2"><tspan font-style="oblique" style="-inkscape-font-specification:Arial" y="282.5" x="736.2">11.2</tspan></text><text stroke-width="8" font-family="Arial" color="#000" overflow="visible" font-style="italic" font-size="23" style="line-height:146%;-inkscape-font-specification:'Arial Italic';text-align:start" y="336.5" x="734.4"><tspan font-style="oblique" style="-inkscape-font-specification:Arial" y="336.5" x="734.4">10.8</tspan></text><text stroke-width="8" font-family="Arial" color="#000" overflow="visible" font-style="italic" font-size="23" style="line-height:146%;-inkscape-font-specification:'Arial Italic';text-align:start" y="381.7" x="451.2"><tspan font-style="oblique" style="-inkscape-font-specification:Arial" y="381.7" x="451.2">10.5</tspan></text><text stroke-width="8" font-family="Arial" color="#000" overflow="visible" font-style="italic" font-size="23" style="line-height:146%;-inkscape-font-specification:'Arial Italic';text-align:start" y="285.2" x="483.7"><tspan font-style="oblique" style="-inkscape-font-specification:Arial" y="285.2" x="483.7">11.1</tspan></text><text stroke-width="8" font-family="Arial" color="#000" overflow="visible" font-style="italic" font-size="23" style="line-height:146%;-inkscape-font-specification:'Arial Italic';text-align:start" y="280.1" x="274.5"><tspan font-style="oblique" style="-inkscape-font-specification:Arial" y="280.1" x="274.5">11.5</tspan></text><text stroke-width="8" font-family="Arial" color="#000" overflow="visible" font-style="italic" font-size="23" style="line-height:146%;-inkscape-font-specification:'Arial Italic';text-align:start" y="115.7" x="235.2"><tspan font-style="oblique" style="-inkscape-font-specification:Arial" y="115.7" x="235.2">12.7</tspan></text><text stroke-width="8" font-family="Arial" color="#000" overflow="visible" font-style="italic" font-size="23" style="line-height:146%;-inkscape-font-specification:'Arial Italic';text-align:start" y="325.9" x="16.4"><tspan font-style="oblique" style="-inkscape-font-specification:Arial" y="325.9" x="16.4">10.9</tspan></text><text stroke-width="8" font-family="Arial" color="#000" overflow="visible" font-style="italic" font-size="23" style="line-height:146%;-inkscape-font-specification:'Arial Italic';text-align:start" y="397.5" x="16.4"><tspan font-style="oblique" style="-inkscape-font-specification:Arial" y="397.5" x="16.4">10.3</tspan></text></g><text transform="translate(0 -50)" stroke-width="8" font-family="Arial" color="#000" x="22.5" y="86.4" style="line-height:146%;-inkscape-font-specification:Arial;text-align:start" font-size="12.4" overflow="visible"><tspan x="22.5" y="86.4" style="-inkscape-font-specification:Arial">Time 1 = between t1 and t2</tspan> <tspan x="22.5" y="104.5" style="-inkscape-font-specification:Arial">Time 2 = between t2 and t3</tspan> <tspan x="22.5" y="122.6" style="-inkscape-font-specification:Arial">Time 3 = between t3 and t4</tspan></text><g color="#000"><path marker-mid="url(#l)" stroke-linejoin="round" stroke-linecap="square" stroke-width="10.4" stroke="#4f81bd" fill="none" d="M-860 896h-30-29" overflow="visible" transform="matrix(.578 0 0 .578 823.752 -61)"/><text stroke-width="8" font-family="Arial" x="-849.1" y="903.6" style="line-height:146%;-inkscape-font-specification:'Arial Italic';text-align:start" font-size="22.2" font-style="italic" overflow="visible" transform="matrix(.578 0 0 .578 823.752 -61)"><tspan x="-849.1" y="903.6" style="-inkscape-font-specification:Arial" font-style="oblique">Nurses</tspan></text><path marker-mid="url(#m)" stroke-linejoin="round" stroke-linecap="square" stroke-width="10.4" stroke="#c0504d" fill="none" d="M-696 896h-30-29" overflow="visible" transform="matrix(.578 0 0 .578 831.046 -61)"/><text stroke-width="8" font-family="Arial" x="-684.9" y="903.6" style="line-height:146%;-inkscape-font-specification:'Arial Italic';text-align:start" font-size="22.2" font-style="italic" overflow="visible" transform="matrix(.578 0 0 .578 831.046 -61)"><tspan x="-684.9" y="903.6" style="-inkscape-font-specification:Arial" font-style="oblique">Teachers</tspan></text></g><text transform="matrix(.816 0 0 .816 2.24 -58)" stroke-width="8" font-family="Arial" color="#000" overflow="visible" font-style="italic" font-size="23" style="line-height:146%;-inkscape-font-specification:'Arial Italic';text-align:start" y="491.9" x="241.1"><tspan font-style="oblique" style="-inkscape-font-specification:Arial" y="491.9" x="241.1">GHQ-12 t1</tspan></text><text transform="matrix(.816 0 0 .816 2.24 -58)" stroke-width="8" font-family="Arial" color="#000" overflow="visible" font-style="italic" font-size="23" style="line-height:146%;-inkscape-font-specification:'Arial Italic';text-align:start" y="491.9" x="430.6"><tspan font-style="oblique" style="-inkscape-font-specification:Arial" y="491.9" x="430.6">GHQ-12 t2</tspan></text><text transform="matrix(.816 0 0 .816 2.24 -58)" stroke-width="8" font-family="Arial" color="#000" overflow="visible" font-style="italic" font-size="23" style="line-height:146%;-inkscape-font-specification:'Arial Italic';text-align:start" y="491.9" x="621.2"><tspan font-style="oblique" style="-inkscape-font-specification:Arial" y="491.9" x="621.2">GHQ-12 t3</tspan></text><text transform="matrix(.816 0 0 .816 2.24 -58)" stroke-width="8" font-family="Arial" color="#000" overflow="visible" font-style="italic" font-size="23" style="line-height:146%;-inkscape-font-specification:'Arial Italic';text-align:start" y="491.9" x="811.3"><tspan font-style="oblique" style="-inkscape-font-specification:Arial" y="491.9" x="811.3">GHQ-12 t4</tspan></text><g color="#000"><path marker-mid="url(#n)" stroke-linejoin="round" stroke-linecap="square" stroke-width="7.4" stroke="#c0504d" fill="none" overflow="visible" d="M130 655h-21-20.5" transform="matrix(.816 0 0 .816 -27.952 -122.056)"/><text stroke-width="8" font-family="Arial" overflow="visible" font-style="italic" font-size="15.7" style="line-height:146%;-inkscape-font-specification:'Arial Italic';text-align:start" y="659.9" x="138.1" transform="matrix(.816 0 0 .816 -27.952 -122.056)"><tspan font-style="oblique" style="-inkscape-font-specification:Arial" y="659.9" x="138.1">Teachers</tspan></text></g><text transform="matrix(.816 0 0 .816 2.24 -58)" stroke-width="8" font-family="Arial" color="#000" overflow="visible" font-style="italic" font-size="23" style="line-height:146%;-inkscape-font-specification:'Arial Italic';text-align:start" y="584.6" x="272.9"><tspan font-style="oblique" style="-inkscape-font-specification:Arial" y="584.6" x="272.9">10.3</tspan></text><text transform="matrix(.816 0 0 .816 2.24 -58)" stroke-width="8" font-family="Arial" color="#000" overflow="visible" font-style="italic" font-size="23" style="line-height:146%;-inkscape-font-specification:'Arial Italic';text-align:start" y="584.6" x="464"><tspan font-style="oblique" style="-inkscape-font-specification:Arial" y="584.6" x="464">11.5</tspan></text><text transform="matrix(.816 0 0 .816 2.24 -58)" stroke-width="8" font-family="Arial" color="#000" overflow="visible" font-style="italic" font-size="23" style="line-height:146%;-inkscape-font-specification:'Arial Italic';text-align:start" y="584.8" x="655.6"><tspan font-style="oblique" style="-inkscape-font-specification:Arial" y="584.8" x="655.6">11.1</tspan></text><text transform="matrix(.816 0 0 .816 2.24 -58)" stroke-width="8" font-family="Arial" color="#000" overflow="visible" font-style="italic" font-size="23" style="line-height:146%;-inkscape-font-specification:'Arial Italic';text-align:start" y="584.8" x="844.7"><tspan font-style="oblique" style="-inkscape-font-specification:Arial" y="584.8" x="844.7">11.2</tspan></text><g color="#000"><path overflow="visible" d="M5 655h-21-20.7" fill="none" stroke="#4f81bd" stroke-width="7.4" stroke-linecap="square" stroke-linejoin="round" marker-mid="url(#o)" transform="matrix(.816 0 0 .816 74.2 -159)"/><text overflow="visible" font-style="italic" font-size="15.7" style="line-height:146%;-inkscape-font-specification:'Arial Italic';text-align:start" y="659.9" x="12.8" font-family="Arial" stroke-width="8" transform="matrix(.816 0 0 .816 74.2 -159)"><tspan font-style="oblique" style="-inkscape-font-specification:Arial" y="659.9" x="12.8">Nurses</tspan></text></g><text overflow="visible" font-style="italic" font-size="18.768" style="line-height:146%;-inkscape-font-specification:'Arial Italic';text-align:start" y="382.355" x="690.781" color="#000" font-family="Arial" stroke-width="8"><tspan font-style="oblique" style="-inkscape-font-specification:Arial" y="382.355" x="690.781">10.8</tspan></text><text overflow="visible" font-style="italic" font-size="18.768" style="line-height:146%;-inkscape-font-specification:'Arial Italic';text-align:start" y="382.355" x="535.659" color="#000" font-family="Arial" stroke-width="8"><tspan font-style="oblique" style="-inkscape-font-specification:Arial" y="382.355" x="535.659">10.5</tspan></text><text overflow="visible" font-style="italic" font-size="18.768" style="line-height:146%;-inkscape-font-specification:'Arial Italic';text-align:start" y="382.437" x="379.966" color="#000" font-family="Arial" stroke-width="8"><tspan font-style="oblique" style="-inkscape-font-specification:Arial" y="382.437" x="379.966">12.7</tspan></text><text overflow="visible" font-style="italic" font-size="18.768" style="line-height:146%;-inkscape-font-specification:'Arial Italic';text-align:start" y="382.355" x="224.926" color="#000" font-family="Arial" stroke-width="8"><tspan font-style="oblique" style="-inkscape-font-specification:Arial" y="382.355" x="224.926">10.9</tspan></text><path d="M12.4 434H788M12.4 395H788M12.4 357H788m-621-39h621m0 0v116M633 318v116M478 318v116M322 318v116M167 318v116M12 357v77" fill="none" stroke="gray" stroke-width=".979" stroke-linecap="square"/></svg>