<?xml version="1.0" encoding="UTF-8" standalone="no"?>
<svg xmlns="http://www.w3.org/2000/svg" xmlns:xlink="http://www.w3.org/1999/xlink" width="800"
   height="480" id="svg4136" version="1.1">
   <metadata id="metadata4307"> </metadata>
   <defs id="defs4138">
      <marker id="h" orient="auto">
         <path stroke-width=".3" stroke="#4f81bd" fill-rule="evenodd" fill="#4f81bd"
            d="M1 0C1 .6.5 1 0 1c-.6 0-1-.4-1-1s.4-1 1-1c.5 0 1 .4 1 1z" id="path4141"/>
      </marker>
      <marker id="g" orient="auto">
         <path stroke-width=".3" stroke="#4f81bd" fill-rule="evenodd" fill="#4f81bd"
            d="M1 0C1 .6.5 1 0 1c-.6 0-1-.4-1-1s.4-1 1-1c.5 0 1 .4 1 1z" id="path4144"/>
      </marker>
      <marker id="f" orient="auto">
         <path stroke-width=".3" stroke="#4f81bd" fill-rule="evenodd" fill="#4f81bd"
            d="M1 0C1 .6.5 1 0 1c-.6 0-1-.4-1-1s.4-1 1-1c.5 0 1 .4 1 1z" id="path4147"/>
      </marker>
      <marker id="k" orient="auto">
         <path stroke-width=".3" stroke="#c0504d" fill-rule="evenodd" fill="#c0504d"
            d="M1 0C1 .6.5 1 0 1c-.6 0-1-.4-1-1s.4-1 1-1c.5 0 1 .4 1 1z" id="path4150"/>
      </marker>
      <marker id="j" orient="auto">
         <path stroke-width=".3" stroke="#c0504d" fill-rule="evenodd" fill="#c0504d"
            d="M1 0C1 .6.5 1 0 1c-.6 0-1-.4-1-1s.4-1 1-1c.5 0 1 .4 1 1z" id="path4153"/>
      </marker>
      <marker id="i" orient="auto">
         <path stroke-width=".3" stroke="#c0504d" fill-rule="evenodd" fill="#c0504d"
            d="M1 0C1 .6.5 1 0 1c-.6 0-1-.4-1-1s.4-1 1-1c.5 0 1 .4 1 1z" id="path4156"/>
      </marker>
      <marker id="l" orient="auto">
         <path stroke-width=".3" stroke="#4f81bd" fill-rule="evenodd" fill="#4f81bd"
            d="M1 0C1 .6.5 1 0 1c-.6 0-1-.4-1-1s.4-1 1-1c.5 0 1 .4 1 1z" id="path4159"/>
      </marker>
      <marker id="m" orient="auto">
         <path stroke-width=".3" stroke="#c0504d" fill-rule="evenodd" fill="#c0504d"
            d="M1 0C1 .6.5 1 0 1c-.6 0-1-.4-1-1s.4-1 1-1c.5 0 1 .4 1 1z" id="path4162"/>
      </marker>
      <marker id="o" orient="auto">
         <path stroke-width=".3" stroke="#4f81bd" fill-rule="evenodd" fill="#4f81bd"
            d="M1 0C1 .6.5 1 0 1c-.6 0-1-.4-1-1s.4-1 1-1c.5 0 1 .4 1 1z" id="path4165"/>
      </marker>
      <marker id="n" orient="auto">
         <path stroke-width=".3" stroke="#c0504d" fill-rule="evenodd" fill="#c0504d"
            d="M1 0C1 .6.5 1 0 1c-.6 0-1-.4-1-1s.4-1 1-1c.5 0 1 .4 1 1z" id="path4168"/>
      </marker>
      <marker id="o-4" orient="auto" style="overflow:visible">
         <path d="M 1,0 C 1,0.6 0.5,1 0,1 -0.6,1 -1,0.6 -1,0 c 0,-0.6 0.4,-1 1,-1 0.5,0 1,0.4 1,1 z"
            id="path4165-1" style="fill:#4f81bd;fill-rule:evenodd;stroke:#4f81bd;stroke-width:0.3"/>
      </marker>
      <marker id="n-8" orient="auto" style="overflow:visible">
         <path d="M 1,0 C 1,0.6 0.5,1 0,1 -0.6,1 -1,0.6 -1,0 c 0,-0.6 0.4,-1 1,-1 0.5,0 1,0.4 1,1 z"
            id="path4168-3" style="fill:#c0504d;fill-rule:evenodd;stroke:#c0504d;stroke-width:0.3"/>
      </marker>
      <marker id="l-8" orient="auto" style="overflow:visible">
         <path d="M 1,0 C 1,0.6 0.5,1 0,1 -0.6,1 -1,0.6 -1,0 c 0,-0.6 0.4,-1 1,-1 0.5,0 1,0.4 1,1 z"
            id="path4159-3" style="fill:#4f81bd;fill-rule:evenodd;stroke:#4f81bd;stroke-width:0.3"/>
      </marker>
      <marker id="m-6" orient="auto" style="overflow:visible">
         <path d="M 1,0 C 1,0.6 0.5,1 0,1 -0.6,1 -1,0.6 -1,0 c 0,-0.6 0.4,-1 1,-1 0.5,0 1,0.4 1,1 z"
            id="path4162-1" style="fill:#c0504d;fill-rule:evenodd;stroke:#c0504d;stroke-width:0.3"/>
      </marker>
      <marker id="h-3" orient="auto" style="overflow:visible">
         <path d="M 1,0 C 1,0.6 0.5,1 0,1 -0.6,1 -1,0.6 -1,0 c 0,-0.6 0.4,-1 1,-1 0.5,0 1,0.4 1,1 z"
            id="path4141-0" style="fill:#4f81bd;fill-rule:evenodd;stroke:#4f81bd;stroke-width:0.3"/>
      </marker>
      <marker id="g-0" orient="auto" style="overflow:visible">
         <path d="M 1,0 C 1,0.6 0.5,1 0,1 -0.6,1 -1,0.6 -1,0 c 0,-0.6 0.4,-1 1,-1 0.5,0 1,0.4 1,1 z"
            id="path4144-8" style="fill:#4f81bd;fill-rule:evenodd;stroke:#4f81bd;stroke-width:0.3"/>
      </marker>
      <marker id="f-5" orient="auto" style="overflow:visible">
         <path d="M 1,0 C 1,0.6 0.5,1 0,1 -0.6,1 -1,0.6 -1,0 c 0,-0.6 0.4,-1 1,-1 0.5,0 1,0.4 1,1 z"
            id="path4147-4" style="fill:#4f81bd;fill-rule:evenodd;stroke:#4f81bd;stroke-width:0.3"/>
      </marker>
      <marker id="k-6" orient="auto" style="overflow:visible">
         <path d="M 1,0 C 1,0.6 0.5,1 0,1 -0.6,1 -1,0.6 -1,0 c 0,-0.6 0.4,-1 1,-1 0.5,0 1,0.4 1,1 z"
            id="path4150-4" style="fill:#c0504d;fill-rule:evenodd;stroke:#c0504d;stroke-width:0.3"/>
      </marker>
      <marker id="j-5" orient="auto" style="overflow:visible">
         <path d="M 1,0 C 1,0.6 0.5,1 0,1 -0.6,1 -1,0.6 -1,0 c 0,-0.6 0.4,-1 1,-1 0.5,0 1,0.4 1,1 z"
            id="path4153-3" style="fill:#c0504d;fill-rule:evenodd;stroke:#c0504d;stroke-width:0.3"/>
      </marker>
      <marker id="i-6" orient="auto" style="overflow:visible">
         <path d="M 1,0 C 1,0.6 0.5,1 0,1 -0.6,1 -1,0.6 -1,0 c 0,-0.6 0.4,-1 1,-1 0.5,0 1,0.4 1,1 z"
            id="path4156-0" style="fill:#c0504d;fill-rule:evenodd;stroke:#c0504d;stroke-width:0.3"/>
      </marker>
   </defs>
   <path d="m 0,-0.2 800,0 0,480.2 -800,0 z" id="path4170"
      style="color:#000000;overflow:visible;fill:#ffffff"/>
   <path
      style="color:#000000;overflow:visible;fill:none;stroke:#cccccc;stroke-width:2.04;stroke-linecap:round;stroke-linejoin:round"
      id="a" d="m 207,45.1 533,0"/>
   <use y="0" x="0" id="b" width="744" height="1050" transform="translate(0,47.7)" xlink:href="#a"/>
   <use y="0" x="0" id="c" width="744" height="1050" transform="translate(0,47.7)" xlink:href="#b"/>
   <use y="0" x="0" id="d" width="744" height="1050" transform="translate(0,47.7)" xlink:href="#c"/>
   <use y="0" x="0" id="e" width="744" height="1050" transform="translate(0,47.7)" xlink:href="#d"/>
   <use y="0" x="0" id="use4179" width="744" height="1050" transform="translate(0,47.7)"
      xlink:href="#e"/>
   <path
      style="color:#000000;font-style:normal;font-variant:normal;font-weight:normal;font-stretch:normal;font-size:medium;line-height:normal;font-family:sans-serif;text-indent:0;text-align:start;text-decoration:none;text-decoration-line:none;text-decoration-style:solid;text-decoration-color:#000000;letter-spacing:normal;word-spacing:normal;text-transform:none;direction:ltr;block-progression:tb;writing-mode:lr-tb;baseline-shift:baseline;text-anchor:start;white-space:normal;clip-rule:nonzero;display:inline;overflow:visible;visibility:visible;opacity:1;isolation:auto;mix-blend-mode:normal;color-interpolation:sRGB;color-interpolation-filters:linearRGB;solid-color:#000000;solid-opacity:1;fill:#4f81bd;fill-opacity:1;fill-rule:nonzero;stroke:none;stroke-width:7.4;stroke-linecap:round;stroke-linejoin:round;stroke-miterlimit:4;stroke-dasharray:none;stroke-dashoffset:0;stroke-opacity:1;color-rendering:auto;image-rendering:auto;shape-rendering:auto;text-rendering:auto;enable-background:accumulate"
      d="m 385,32.9 a 3.02,3.02 0 0 0 -2,0.8 L 205,205 a 3.24,3.24 0 1 0 4,5 L 385,40.2 560,248 a 3.02,3.02 0 0 0 3,1 l 178,-29 a 3.36,3.36 0 0 0 -1,-7 L 563,243 388,34.5 a 3.02,3.02 0 0 0 -3,-1.6 z"
      id="path4181"/>
   <path
      style="color:#000000;font-style:normal;font-variant:normal;font-weight:normal;font-stretch:normal;font-size:medium;line-height:normal;font-family:sans-serif;text-indent:0;text-align:start;text-decoration:none;text-decoration-line:none;text-decoration-style:solid;text-decoration-color:#000000;letter-spacing:normal;word-spacing:normal;text-transform:none;direction:ltr;block-progression:tb;writing-mode:lr-tb;baseline-shift:baseline;text-anchor:start;white-space:normal;clip-rule:nonzero;display:inline;overflow:visible;visibility:visible;opacity:1;isolation:auto;mix-blend-mode:normal;color-interpolation:sRGB;color-interpolation-filters:linearRGB;solid-color:#000000;solid-opacity:1;fill:#c0504d;fill-opacity:1;fill-rule:nonzero;stroke:none;stroke-width:7.4;stroke-linecap:round;stroke-linejoin:round;stroke-miterlimit:4;stroke-dasharray:none;stroke-dashoffset:0;stroke-opacity:1;color-rendering:auto;image-rendering:auto;shape-rendering:auto;text-rendering:auto;enable-background:accumulate"
      d="m 385,147 a 3.02,3.02 0 0 0 -1,1 L 205,262 a 3.02,3.02 0 1 0 4,5 l 177,-113 176,38 a 3.02,3.02 0 0 0 1,0 l 178,-10 a 3.26,3.26 0 0 0 0,-6 l -178,9 -177,-38 a 3.02,3.02 0 0 0 -1,0 z"
      id="path4183"/>
   <text id="text4185" x="748.7392" y="176.92"
      style="color:#000000;font-style:italic;font-size:18.768px;line-height:146%;font-family:Arial;-inkscape-font-specification:'Arial Italic';text-align:start;overflow:visible;stroke-width:8"
      font-size="23" font-style="italic">
      <tspan id="tspan4187" x="748.7392" y="176.92"
         style="font-style:oblique;-inkscape-font-specification:Arial" font-style="oblique"
         >11.2</tspan>
   </text>
   <text id="text4189" x="747.27045" y="220.98399"
      style="color:#000000;font-style:italic;font-size:18.768px;line-height:146%;font-family:Arial;-inkscape-font-specification:'Arial Italic';text-align:start;overflow:visible;stroke-width:8"
      font-size="23" font-style="italic">
      <tspan id="tspan4191" x="747.27045" y="220.98399"
         style="font-style:oblique;-inkscape-font-specification:Arial" font-style="oblique"
         >10.8</tspan>
   </text>
   <text id="text4193" x="516.1792" y="257.86722"
      style="color:#000000;font-style:italic;font-size:18.768px;line-height:146%;font-family:Arial;-inkscape-font-specification:'Arial Italic';text-align:start;overflow:visible;stroke-width:8"
      font-size="23" font-style="italic">
      <tspan id="tspan4195" x="516.1792" y="257.86722"
         style="font-style:oblique;-inkscape-font-specification:Arial" font-style="oblique"
         >10.5</tspan>
   </text>
   <text id="text4197" x="542.69922" y="179.12321"
      style="color:#000000;font-style:italic;font-size:18.768px;line-height:146%;font-family:Arial;-inkscape-font-specification:'Arial Italic';text-align:start;overflow:visible;stroke-width:8"
      font-size="23" font-style="italic">
      <tspan id="tspan4199" x="542.69922" y="179.12321"
         style="font-style:oblique;-inkscape-font-specification:Arial" font-style="oblique"
         >11.1</tspan>
   </text>
   <text id="text4201" x="371.992" y="174.96161"
      style="color:#000000;font-style:italic;font-size:18.768px;line-height:146%;font-family:Arial;-inkscape-font-specification:'Arial Italic';text-align:start;overflow:visible;stroke-width:8"
      font-size="23" font-style="italic">
      <tspan id="tspan4203" x="371.992" y="174.96161"
         style="font-style:oblique;-inkscape-font-specification:Arial" font-style="oblique"
         >11.5</tspan>
   </text>
   <text id="text4205" x="339.92319" y="40.811199"
      style="color:#000000;font-style:italic;font-size:18.768px;line-height:146%;font-family:Arial;-inkscape-font-specification:'Arial Italic';text-align:start;overflow:visible;stroke-width:8"
      font-size="23" font-style="italic">
      <tspan id="tspan4207" x="339.92319" y="40.811199"
         style="font-style:oblique;-inkscape-font-specification:Arial" font-style="oblique"
         >12.7</tspan>
   </text>
   <text id="text4209" x="161.3824" y="212.3344"
      style="color:#000000;font-style:italic;font-size:18.768px;line-height:146%;font-family:Arial;-inkscape-font-specification:'Arial Italic';text-align:start;overflow:visible;stroke-width:8"
      font-size="23" font-style="italic">
      <tspan id="tspan4211" x="161.3824" y="212.3344"
         style="font-style:oblique;-inkscape-font-specification:Arial" font-style="oblique"
         >10.9</tspan>
   </text>
   <text id="text4213" x="161.3824" y="270.76001"
      style="color:#000000;font-style:italic;font-size:18.768px;line-height:146%;font-family:Arial;-inkscape-font-specification:'Arial Italic';text-align:start;overflow:visible;stroke-width:8"
      font-size="23" font-style="italic">
      <tspan id="tspan4215" x="161.3824" y="270.76001"
         style="font-style:oblique;-inkscape-font-specification:Arial" font-style="oblique"
         >10.3</tspan>
   </text>
   <text x="22.510086" y="36.227112"
      style="color:#000000;font-size:12.4px;line-height:146%;font-family:Arial;-inkscape-font-specification:Arial;text-align:start;overflow:visible;stroke-width:8"
      font-size="12.4" id="text4217">
      <tspan x="22.510086" y="36.227112" style="-inkscape-font-specification:Arial" id="tspan4219"
         >Time 1 = between t1 and t2</tspan>
      <tspan x="22.510086" y="54.327106" style="-inkscape-font-specification:Arial" id="tspan4221"
         >Time 2 = between t2 and t3</tspan>
      <tspan x="22.510086" y="72.427101" style="-inkscape-font-specification:Arial" id="tspan4223"
         >Time 3 = between t3 and t4</tspan>
   </text>
   <path
      style="color:#000000;font-style:normal;font-variant:normal;font-weight:normal;font-stretch:normal;font-size:medium;line-height:normal;font-family:sans-serif;text-indent:0;text-align:start;text-decoration:none;text-decoration-line:none;text-decoration-style:solid;text-decoration-color:#000000;letter-spacing:normal;word-spacing:normal;text-transform:none;direction:ltr;block-progression:tb;writing-mode:lr-tb;baseline-shift:baseline;text-anchor:start;white-space:normal;clip-rule:nonzero;display:inline;overflow:visible;visibility:visible;opacity:1;isolation:auto;mix-blend-mode:normal;color-interpolation:sRGB;color-interpolation-filters:linearRGB;solid-color:#000000;solid-opacity:1;fill:#4f81bd;fill-opacity:1;fill-rule:nonzero;stroke:none;stroke-width:10.4;stroke-linecap:square;stroke-linejoin:round;stroke-miterlimit:4;stroke-dasharray:none;stroke-dashoffset:0;stroke-opacity:1;color-rendering:auto;image-rendering:auto;shape-rendering:auto;text-rendering:auto;enable-background:accumulate"
      d="m 290,454 0,6 3,0 17,0 17,0 3,0 0,-6 -3,0 -17,0 -17,0 -3,0 z" id="path4227"/>
   <path d="m 304,457 c 0,-4 3,-6 6,-6 3,0 6,2 6,6 0,3 -3,6 -6,6 -3,0 -6,-3 -6,-6 z" id="path5284"
      style="color:#000000;fill:#4f81bd;fill-rule:evenodd;stroke:#4f81bd;stroke-width:0.301"/>
   <text id="text4229" font-style="italic" font-size="22.2"
      style="color:#000000;font-style:italic;font-size:12.832px;line-height:146%;font-family:Arial;-inkscape-font-specification:'Arial Italic';text-align:start;overflow:visible;stroke-width:8"
      y="461.08078" x="333.22021">
      <tspan id="tspan4231" font-style="oblique"
         style="font-style:oblique;-inkscape-font-specification:Arial" y="461.08078" x="333.22021"
         >Nurses</tspan>
   </text>
   <path
      style="color:#000000;font-style:normal;font-variant:normal;font-weight:normal;font-stretch:normal;font-size:medium;line-height:normal;font-family:sans-serif;text-indent:0;text-align:start;text-decoration:none;text-decoration-line:none;text-decoration-style:solid;text-decoration-color:#000000;letter-spacing:normal;word-spacing:normal;text-transform:none;direction:ltr;block-progression:tb;writing-mode:lr-tb;baseline-shift:baseline;text-anchor:start;white-space:normal;clip-rule:nonzero;display:inline;overflow:visible;visibility:visible;opacity:1;isolation:auto;mix-blend-mode:normal;color-interpolation:sRGB;color-interpolation-filters:linearRGB;solid-color:#000000;solid-opacity:1;fill:#c0504d;fill-opacity:1;fill-rule:nonzero;stroke:none;stroke-width:10.4;stroke-linecap:square;stroke-linejoin:round;stroke-miterlimit:4;stroke-dasharray:none;stroke-dashoffset:0;stroke-opacity:1;color-rendering:auto;image-rendering:auto;shape-rendering:auto;text-rendering:auto;enable-background:accumulate"
      d="m 392,454 0,6 3,0 16,0 18,0 3,0 0,-6 -3,0 -18,0 -16,0 -3,0 z" id="path4233"/>
   <path d="m 405,457 c 0,-4 3,-6 6,-6 4,0 6,2 6,6 0,3 -2,6 -6,6 -3,0 -6,-3 -6,-6 z" id="path5312"
      style="color:#000000;fill:#c0504d;fill-rule:evenodd;stroke:#c0504d;stroke-width:0.301"/>
   <text id="text4235" font-style="italic" font-size="22.2"
      style="color:#000000;font-style:italic;font-size:12.832px;line-height:146%;font-family:Arial;-inkscape-font-specification:'Arial Italic';text-align:start;overflow:visible;stroke-width:8"
      y="461.08078" x="435.12778">
      <tspan id="tspan4237" font-style="oblique"
         style="font-style:oblique;-inkscape-font-specification:Arial" y="461.08078" x="435.12778"
         >Teachers</tspan>
   </text>
   <text font-style="italic" font-size="23"
      style="color:#000000;font-style:italic;font-size:18.768px;line-height:146%;font-family:Arial;-inkscape-font-specification:'Arial Italic';text-align:start;overflow:visible;stroke-width:8"
      y="343.2175" x="198.98769" id="text4239">
      <tspan font-style="oblique" style="font-style:oblique;-inkscape-font-specification:Arial"
         y="343.2175" x="198.98769" id="tspan4241">GHQ-12 t1</tspan>
   </text>
   <text font-style="italic" font-size="23"
      style="color:#000000;font-style:italic;font-size:18.768px;line-height:146%;font-family:Arial;-inkscape-font-specification:'Arial Italic';text-align:start;overflow:visible;stroke-width:8"
      y="343.2175" x="353.61969" id="text4243">
      <tspan font-style="oblique" style="font-style:oblique;-inkscape-font-specification:Arial"
         y="343.2175" x="353.61969" id="tspan4245">GHQ-12 t2</tspan>
   </text>
   <text font-style="italic" font-size="23"
      style="color:#000000;font-style:italic;font-size:18.768px;line-height:146%;font-family:Arial;-inkscape-font-specification:'Arial Italic';text-align:start;overflow:visible;stroke-width:8"
      y="343.2175" x="509.14929" id="text4247">
      <tspan font-style="oblique" style="font-style:oblique;-inkscape-font-specification:Arial"
         y="343.2175" x="509.14929" id="tspan4249">GHQ-12 t3</tspan>
   </text>
   <text font-style="italic" font-size="23"
      style="color:#000000;font-style:italic;font-size:18.768px;line-height:146%;font-family:Arial;-inkscape-font-specification:'Arial Italic';text-align:start;overflow:visible;stroke-width:8"
      y="343.2175" x="664.27087" id="text4251">
      <tspan font-style="oblique" style="font-style:oblique;-inkscape-font-specification:Arial"
         y="343.2175" x="664.27087" id="tspan4253">GHQ-12 t4</tspan>
   </text>
   <path
      style="color:#000000;font-style:normal;font-variant:normal;font-weight:normal;font-stretch:normal;font-size:medium;line-height:normal;font-family:sans-serif;text-indent:0;text-align:start;text-decoration:none;text-decoration-line:none;text-decoration-style:solid;text-decoration-color:#000000;letter-spacing:normal;word-spacing:normal;text-transform:none;direction:ltr;block-progression:tb;writing-mode:lr-tb;baseline-shift:baseline;text-anchor:start;white-space:normal;clip-rule:nonzero;display:inline;overflow:visible;visibility:visible;opacity:1;isolation:auto;mix-blend-mode:normal;color-interpolation:sRGB;color-interpolation-filters:linearRGB;solid-color:#000000;solid-opacity:1;fill:#c0504d;fill-opacity:1;fill-rule:nonzero;stroke:none;stroke-width:7.4;stroke-linecap:square;stroke-linejoin:round;stroke-miterlimit:4;stroke-dasharray:none;stroke-dashoffset:0;stroke-opacity:1;color-rendering:auto;image-rendering:auto;shape-rendering:auto;text-rendering:auto;enable-background:accumulate"
      d="m 41.2,409 0,7 3,0 16.7,0 17.2,0 3.2,0 0,-7 -3.2,0 -17.2,0 -16.7,0 -3,0 z" id="path4257"/>
   <path d="m 54.9,412 c 0,-3 3,-6 6,-6 3.7,0 6.1,3 6.1,6 0,4 -2.4,7 -6.1,7 -3,0 -6,-3 -6,-7 z"
      id="path5256"
      style="color:#000000;fill:#c0504d;fill-rule:evenodd;stroke:#c0504d;stroke-width:0.302"/>
   <text id="text4259" x="84.689606" y="416.47842"
      style="color:#000000;font-style:italic;font-size:12.811px;line-height:146%;font-family:Arial;-inkscape-font-specification:'Arial Italic';text-align:start;overflow:visible;stroke-width:8"
      font-size="15.7" font-style="italic">
      <tspan id="tspan4261" x="84.689606" y="416.47842"
         style="font-style:oblique;-inkscape-font-specification:Arial" font-style="oblique"
         >Teachers</tspan>
   </text>
   <text font-style="italic" font-size="23"
      style="color:#000000;font-style:italic;font-size:18.768px;line-height:146%;font-family:Arial;-inkscape-font-specification:'Arial Italic';text-align:start;overflow:visible;stroke-width:8"
      y="418.86069" x="224.93648" id="text4263">
      <tspan font-style="oblique" style="font-style:oblique;-inkscape-font-specification:Arial"
         y="418.86069" x="224.93648" id="tspan4265">10.3</tspan>
   </text>
   <text font-style="italic" font-size="23"
      style="color:#000000;font-style:italic;font-size:18.768px;line-height:146%;font-family:Arial;-inkscape-font-specification:'Arial Italic';text-align:start;overflow:visible;stroke-width:8"
      y="418.86069" x="380.87408" id="text4267">
      <tspan font-style="oblique" style="font-style:oblique;-inkscape-font-specification:Arial"
         y="418.86069" x="380.87408" id="tspan4269">11.5</tspan>
   </text>
   <text font-style="italic" font-size="23"
      style="color:#000000;font-style:italic;font-size:18.768px;line-height:146%;font-family:Arial;-inkscape-font-specification:'Arial Italic';text-align:start;overflow:visible;stroke-width:8"
      y="419.0239" x="537.21967" id="text4271">
      <tspan font-style="oblique" style="font-style:oblique;-inkscape-font-specification:Arial"
         y="419.0239" x="537.21967" id="tspan4273">11.1</tspan>
   </text>
   <text font-style="italic" font-size="23"
      style="color:#000000;font-style:italic;font-size:18.768px;line-height:146%;font-family:Arial;-inkscape-font-specification:'Arial Italic';text-align:start;overflow:visible;stroke-width:8"
      y="419.0239" x="691.52527" id="text4275">
      <tspan font-style="oblique" style="font-style:oblique;-inkscape-font-specification:Arial"
         y="419.0239" x="691.52527" id="tspan4277">11.2</tspan>
   </text>
   <path
      style="color:#000000;font-style:normal;font-variant:normal;font-weight:normal;font-stretch:normal;font-size:medium;line-height:normal;font-family:sans-serif;text-indent:0;text-align:start;text-decoration:none;text-decoration-line:none;text-decoration-style:solid;text-decoration-color:#000000;letter-spacing:normal;word-spacing:normal;text-transform:none;direction:ltr;block-progression:tb;writing-mode:lr-tb;baseline-shift:baseline;text-anchor:start;white-space:normal;clip-rule:nonzero;display:inline;overflow:visible;visibility:visible;opacity:1;isolation:auto;mix-blend-mode:normal;color-interpolation:sRGB;color-interpolation-filters:linearRGB;solid-color:#000000;solid-opacity:1;fill:#4f81bd;fill-opacity:1;fill-rule:nonzero;stroke:none;stroke-width:7.4;stroke-linecap:square;stroke-linejoin:round;stroke-miterlimit:4;stroke-dasharray:none;stroke-dashoffset:0;stroke-opacity:1;color-rendering:auto;image-rendering:auto;shape-rendering:auto;text-rendering:auto;enable-background:accumulate"
      d="m 41.2,372 0,7 3.1,0 16.8,0 17.2,0 3,0 0,-7 -3,0 -17.2,0 -16.8,0 -3.1,0 z" id="path4281"/>
   <path d="m 55.1,375 c 0,-3 3,-6 6,-6 3.7,0 6.1,3 6.1,6 0,4 -2.4,7 -6.1,7 -3,0 -6,-3 -6,-7 z"
      id="path5228"
      style="color:#000000;fill:#4f81bd;fill-rule:evenodd;stroke:#4f81bd;stroke-width:0.302"/>
   <text id="text4283" x="84.644798" y="379.47842"
      style="color:#000000;font-style:italic;font-size:12.811px;line-height:146%;font-family:Arial;-inkscape-font-specification:'Arial Italic';text-align:start;overflow:visible;stroke-width:8"
      font-size="15.7" font-style="italic">
      <tspan id="tspan4285" x="84.644798" y="379.47842"
         style="font-style:oblique;-inkscape-font-specification:Arial" font-style="oblique"
         >Nurses</tspan>
   </text>
   <text font-style="italic" font-size="18.768"
      style="color:#000000;font-style:italic;font-size:18.768px;line-height:146%;font-family:Arial;-inkscape-font-specification:'Arial Italic';text-align:start;overflow:visible;stroke-width:8"
      y="382.18213" x="690.79108" id="text4287">
      <tspan font-style="oblique" style="font-style:oblique;-inkscape-font-specification:Arial"
         y="382.18213" x="690.79108" id="tspan4289">10.8</tspan>
   </text>
   <text font-style="italic" font-size="18.768"
      style="color:#000000;font-style:italic;font-size:18.768px;line-height:146%;font-family:Arial;-inkscape-font-specification:'Arial Italic';text-align:start;overflow:visible;stroke-width:8"
      y="382.18213" x="535.66907" id="text4291">
      <tspan font-style="oblique" style="font-style:oblique;-inkscape-font-specification:Arial"
         y="382.18213" x="535.66907" id="tspan4293">10.5</tspan>
   </text>
   <text font-style="italic" font-size="18.768"
      style="color:#000000;font-style:italic;font-size:18.768px;line-height:146%;font-family:Arial;-inkscape-font-specification:'Arial Italic';text-align:start;overflow:visible;stroke-width:8"
      y="382.26413" x="379.97607" id="text4295">
      <tspan font-style="oblique" style="font-style:oblique;-inkscape-font-specification:Arial"
         y="382.26413" x="379.97607" id="tspan4297">12.7</tspan>
   </text>
   <text font-style="italic" font-size="18.768"
      style="color:#000000;font-style:italic;font-size:18.768px;line-height:146%;font-family:Arial;-inkscape-font-specification:'Arial Italic';text-align:start;overflow:visible;stroke-width:8"
      y="382.18213" x="224.93608" id="text4299">
      <tspan font-style="oblique" style="font-style:oblique;-inkscape-font-specification:Arial"
         y="382.18213" x="224.93608" id="tspan4301">10.9</tspan>
   </text>
   <path
      d="M 12.4,434 788,434 M 12.4,395 788,395 M 12.4,357 788,357 m -621,-39 621,0 m 0,0 0,116 m -155,-116 0,116 m -155,-116 0,116 m -156,-116 0,116 m -155,-116 0,116 m -155,-77 0,77"
      id="path4303" style="fill:none;stroke:#808080;stroke-width:0.979;stroke-linecap:square"/>
   <circle r="5.91" cy="179" cx="741" id="path5043"
      style="opacity:1;fill:#c0504d;fill-opacity:1;stroke:none;stroke-width:0.979;stroke-linecap:square;stroke-linejoin:round;stroke-miterlimit:4;stroke-dasharray:none;stroke-opacity:1"/>
   <circle r="5.91" cy="189" cx="562" id="path5043-8"
      style="opacity:1;fill:#c0504d;fill-opacity:1;stroke:none;stroke-width:0.979;stroke-linecap:square;stroke-linejoin:round;stroke-miterlimit:4;stroke-dasharray:none;stroke-opacity:1"/>
   <circle r="5.91" cy="151" cx="386" id="path5043-0"
      style="opacity:1;fill:#c0504d;fill-opacity:1;stroke:none;stroke-width:0.979;stroke-linecap:square;stroke-linejoin:round;stroke-miterlimit:4;stroke-dasharray:none;stroke-opacity:1"/>
   <circle r="5.91" cy="265" cx="206" id="path5043-02"
      style="opacity:1;fill:#c0504d;fill-opacity:1;stroke:none;stroke-width:0.979;stroke-linecap:square;stroke-linejoin:round;stroke-miterlimit:4;stroke-dasharray:none;stroke-opacity:1"/>
   <circle r="5.91" cy="216" cx="741" id="path5043-87"
      style="opacity:1;fill:#4f81bd;fill-opacity:1;stroke:none;stroke-width:0.979;stroke-linecap:square;stroke-linejoin:round;stroke-miterlimit:4;stroke-dasharray:none;stroke-opacity:1"/>
   <circle r="5.91" cy="246" cx="562" id="path5043-1"
      style="opacity:1;fill:#4f81bd;fill-opacity:1;stroke:none;stroke-width:0.979;stroke-linecap:square;stroke-linejoin:round;stroke-miterlimit:4;stroke-dasharray:none;stroke-opacity:1"/>
   <circle r="5.91" cy="37.2" cx="385" id="path5043-7"
      style="opacity:1;fill:#4f81bd;fill-opacity:1;stroke:none;stroke-width:0.979;stroke-linecap:square;stroke-linejoin:round;stroke-miterlimit:4;stroke-dasharray:none;stroke-opacity:1"/>
   <circle r="5.91" cy="208" cx="206" id="path5043-4"
      style="opacity:1;fill:#4f81bd;fill-opacity:1;stroke:none;stroke-width:0.979;stroke-linecap:square;stroke-linejoin:round;stroke-miterlimit:4;stroke-dasharray:none;stroke-opacity:1"
   />
</svg>
